<?xml version="1.0" encoding="UTF-8" standalone="no"?>
<!-- Created with Inkscape (http://www.inkscape.org/) -->

<svg
   xmlns:dc="http://purl.org/dc/elements/1.1/"
   xmlns:cc="http://creativecommons.org/ns#"
   xmlns:rdf="http://www.w3.org/1999/02/22-rdf-syntax-ns#"
   xmlns:svg="http://www.w3.org/2000/svg"
   xmlns="http://www.w3.org/2000/svg"
   xmlns:sodipodi="http://sodipodi.sourceforge.net/DTD/sodipodi-0.dtd"
   xmlns:inkscape="http://www.inkscape.org/namespaces/inkscape"
   width="532.995"
   height="851.89502"
   viewBox="0 0 532.99499 851.89502"
   id="svg2"
   version="1.1"
   inkscape:version="0.91 r13725"
   sodipodi:docname="invi-nina.svg"
   inkscape:export-filename="/Users/leovolkov/repos/poemario-nina/inviteishon/invi-nina.png"
   inkscape:export-xdpi="282"
   inkscape:export-ydpi="282">
  <defs
     id="defs4">
    <clipPath
       id="clipPath3437"
       clipPathUnits="userSpaceOnUse">
      <path
         inkscape:connector-curvature="0"
         id="path3439"
         d="M 0,800 800,800 800,0 0,0 0,800 Z" />
    </clipPath>
    <clipPath
       id="clipPath3445"
       clipPathUnits="userSpaceOnUse">
      <path
         inkscape:connector-curvature="0"
         id="path3447"
         d="M -4.88281e-4,800 800,800 800,0 -4.88281e-4,0 l 0,800 z" />
    </clipPath>
    <clipPath
       id="clipPath3449"
       clipPathUnits="userSpaceOnUse">
      <path
         inkscape:connector-curvature="0"
         id="path3451"
         d="M 800,0 0,0 0,800 800,800 800,0 Z" />
    </clipPath>
    <clipPath
       id="clipPath3453"
       clipPathUnits="userSpaceOnUse">
      <path
         inkscape:connector-curvature="0"
         id="path3455"
         d="m -32768,32767 65535,0 0,-65535 -65535,0 0,65535 z" />
    </clipPath>
    <radialGradient
       id="radialGradient3457"
       spreadMethod="pad"
       gradientTransform="matrix(563.45984,0,0,-563.45984,400,400)"
       gradientUnits="userSpaceOnUse"
       r="1"
       cy="0"
       cx="0"
       fy="0"
       fx="0">
      <stop
         id="stop3459"
         offset="0"
         style="stop-opacity:0;stop-color:#ffffff" />
      <stop
         id="stop3461"
         offset="0.4888388"
         style="stop-opacity:0;stop-color:#ffffff" />
      <stop
         id="stop3463"
         offset="1"
         style="stop-opacity:0.29999237;stop-color:#ffffff" />
    </radialGradient>
    <mask
       id="mask3465"
       height="1"
       width="1"
       y="0"
       x="0"
       maskUnits="userSpaceOnUse">
      <g
         id="g3467">
        <g
           id="g3469"
           clip-path="url(#clipPath3453)">
          <g
             id="g3471">
            <g
               id="g3473">
              <path
                 inkscape:connector-curvature="0"
                 id="path3475"
                 style="fill:url(#radialGradient3457);stroke:none"
                 d="m -32768,32767 65535,0 0,-65535 -65535,0 0,65535 z" />
            </g>
          </g>
        </g>
      </g>
    </mask>
    <radialGradient
       id="radialGradient3477"
       spreadMethod="pad"
       gradientTransform="matrix(563.45984,0,0,-563.45984,400,400)"
       gradientUnits="userSpaceOnUse"
       r="1"
       cy="0"
       cx="0"
       fy="0"
       fx="0">
      <stop
         id="stop3479"
         offset="0"
         style="stop-opacity:1;stop-color:#ffffff" />
      <stop
         id="stop3481"
         offset="0.4888388"
         style="stop-opacity:1;stop-color:#ffffff" />
      <stop
         id="stop3483"
         offset="1"
         style="stop-opacity:1;stop-color:#1d1e1c" />
    </radialGradient>
    <clipPath
       id="clipPath3631"
       clipPathUnits="userSpaceOnUse">
      <path
         inkscape:connector-curvature="0"
         id="path3633"
         d="m -0.078125,799.032 800.156125,0 0,-798.065203 -800.156125,0 0,798.065203 z" />
    </clipPath>
    <clipPath
       id="clipPath10507"
       clipPathUnits="userSpaceOnUse">
      <path
         inkscape:connector-curvature="0"
         id="path10509"
         d="m 0.188965,799.805 799.623035,0 0,-799.609688 -799.623035,0 0,799.609688 z" />
    </clipPath>
    <clipPath
       id="clipPath15021"
       clipPathUnits="userSpaceOnUse">
      <path
         inkscape:connector-curvature="0"
         id="path15023"
         d="M 0,800 800,800 800,0 0,0 0,800 Z" />
    </clipPath>
    <clipPath
       id="clipPath15613"
       clipPathUnits="userSpaceOnUse">
      <path
         inkscape:connector-curvature="0"
         id="path15615"
         d="M 0,800 800,800 800,0 0,0 0,800 Z" />
    </clipPath>
    <clipPath
       clipPathUnits="userSpaceOnUse"
       id="clipPath4390">
      <circle
         r="32.933071"
         cy="799.1665"
         cx="391.25854"
         id="circle4392"
         style="opacity:0.53500001;fill:#c87137;fill-opacity:1;fill-rule:nonzero;stroke:none;stroke-width:0.5;stroke-linecap:round;stroke-linejoin:round;stroke-miterlimit:4;stroke-dasharray:none;stroke-opacity:1" />
    </clipPath>
    <filter
       inkscape:label="Linen Canvas"
       inkscape:menu="Bumps"
       inkscape:menu-tooltip="Painting canvas emboss effect"
       style="color-interpolation-filters:sRGB;"
       id="filter5283">
      <feTurbulence
         numOctaves="5"
         baseFrequency="0.4"
         id="feTurbulence5285" />
      <feConvolveMatrix
         order="5 5"
         kernelMatrix="-4 0 0 0 -4 0 -2 0 -2 0 0 0 -10 0 0 0 -2 0 -2 0 -4 0 0 0 -4 "
         targetX="2"
         targetY="2"
         id="feConvolveMatrix5287" />
      <feConvolveMatrix
         order="3 3"
         kernelMatrix="2 0 2 0 -5 0 2 0 2 "
         targetX="1"
         targetY="1"
         id="feConvolveMatrix5289" />
      <feColorMatrix
         type="saturate"
         result="result1"
         id="feColorMatrix5291" />
      <feComposite
         in2="SourceGraphic"
         operator="arithmetic"
         k1="1.5"
         k2="0.5"
         k3="0.5"
         result="result2"
         id="feComposite5293" />
      <feBlend
         mode="normal"
         in2="result1"
         result="result4"
         id="feBlend5295" />
      <feColorMatrix
         type="luminanceToAlpha"
         id="feColorMatrix5297" />
      <feDiffuseLighting
         surfaceScale="10"
         diffuseConstant="1"
         result="result3"
         id="feDiffuseLighting5299">
        <feDistantLight
           azimuth="180"
           elevation="35"
           id="feDistantLight5301" />
      </feDiffuseLighting>
      <feComposite
         in2="result4"
         operator="arithmetic"
         k1="1.5"
         k3="0.5"
         result="result5"
         id="feComposite5303" />
      <feBlend
         mode="normal"
         in2="result3"
         result="result6"
         id="feBlend5305" />
      <feComposite
         in2="SourceGraphic"
         operator="in"
         id="feComposite5307" />
    </filter>
  </defs>
  <sodipodi:namedview
     id="base"
     pagecolor="#ffffff"
     bordercolor="#666666"
     borderopacity="1.0"
     inkscape:pageopacity="0.0"
     inkscape:pageshadow="2"
     inkscape:zoom="0.6"
     inkscape:cx="234.63479"
     inkscape:cy="453.88361"
     inkscape:document-units="px"
     inkscape:current-layer="layer2"
     showgrid="false"
     units="px"
     showguides="false"
     inkscape:guide-bbox="true"
     inkscape:window-width="1280"
     inkscape:window-height="751"
     inkscape:window-x="0"
     inkscape:window-y="1"
     inkscape:window-maximized="1">
    <sodipodi:guide
       position="177.165,283.46457"
       orientation="1,0"
       id="guide3336"
       inkscape:label=""
       inkscape:color="rgb(0,0,255)" />
    <sodipodi:guide
       position="354.331,566.92913"
       orientation="1,0"
       id="guide3338"
       inkscape:label=""
       inkscape:color="rgb(0,0,255)" />
    <sodipodi:guide
       position="531.49606,850.3937"
       orientation="1,0"
       id="guide3340"
       inkscape:label=""
       inkscape:color="rgb(0,0,255)" />
    <sodipodi:guide
       position="708.66142,0"
       orientation="1,0"
       id="guide3342"
       inkscape:label=""
       inkscape:color="rgb(0,0,255)" />
    <sodipodi:guide
       position="177.165,283.46457"
       orientation="0,1"
       id="guide3344" />
    <sodipodi:guide
       position="354.331,566.92913"
       orientation="0,1"
       id="guide3346" />
    <sodipodi:guide
       position="531.49606,850.3937"
       orientation="0,1"
       id="guide3348" />
    <sodipodi:guide
       position="173.62205,279.92126"
       orientation="0,1"
       id="guide24658"
       inkscape:label=""
       inkscape:color="rgb(0,0,255)" />
    <sodipodi:guide
       position="173.622,279.92126"
       orientation="1,0"
       id="guide24660"
       inkscape:label=""
       inkscape:color="rgb(0,0,255)" />
    <sodipodi:guide
       position="3.5433071,279.92126"
       orientation="1,0"
       id="guide24662"
       inkscape:label=""
       inkscape:color="rgb(0,0,255)" />
    <sodipodi:guide
       position="3.5433071,3.5433071"
       orientation="0,1"
       id="guide24664"
       inkscape:label=""
       inkscape:color="rgb(0,0,255)" />
    <sodipodi:guide
       position="0,279.92126"
       orientation="1,0"
       id="guide4196"
       inkscape:label=""
       inkscape:color="rgb(0,0,255)" />
    <sodipodi:guide
       position="177.165,0"
       orientation="0,1"
       id="guide4200"
       inkscape:label=""
       inkscape:color="rgb(0,0,255)" />
    <sodipodi:guide
       position="88.582677,283.46457"
       orientation="1,0"
       id="guide4206"
       inkscape:label=""
       inkscape:color="rgb(0,0,255)" />
  </sodipodi:namedview>
  <metadata
     id="metadata7">
    <rdf:RDF>
      <cc:Work
         rdf:about="">
        <dc:format>image/svg+xml</dc:format>
        <dc:type
           rdf:resource="http://purl.org/dc/dcmitype/StillImage" />
        <dc:title></dc:title>
      </cc:Work>
    </rdf:RDF>
  </metadata>
  <g
     inkscape:label="fondo"
     inkscape:groupmode="layer"
     id="layer1"
     transform="translate(0,-200.46717)"
     style="display:inline">
    <rect
       style="opacity:0.53500001;fill:#c7b9c5;fill-opacity:1;fill-rule:nonzero;stroke:#6e6e6e;stroke-width:1.49893951;stroke-linecap:round;stroke-linejoin:round;stroke-miterlimit:4;stroke-dasharray:none;stroke-opacity:1"
       id="rect4989"
       width="531.03284"
       height="849.93079"
       x="0.9810791"
       y="201.44931" />
    <g
       id="g4923"
       transform="matrix(2.9973913,0,0,2.9983669,0.61534657,-2103.9879)">
      <path
         sodipodi:nodetypes="csssssssccccccccsscscsccsccsscsssccssssssccssscsssscscssscccscssccccssccsscssssscsscscsscsssccccscssssssssssssssscscssscssssscsscssssssssssccsscccsccccscscsc"
         inkscape:connector-curvature="0"
         id="path4925"
         d="m 5.0905769,799.38585 c -2.6873288,-0.31442 -1.8853004,-5.33829 1.5680419,-9.82213 0.8050339,-1.04528 1.1374475,-1.6681 0.9940176,-1.86247 -1.2557905,-1.70183 -1.6256226,-2.457 -1.7267678,-3.52596 -0.2220939,-2.34728 1.0328059,-4.20243 3.2272428,-4.77093 1.0872276,-0.28165 1.1860446,-0.3707 1.3166116,-1.18643 0.176764,-1.10434 0.712434,-1.94604 1.726504,-2.71283 1.660326,-1.25548 3.545637,-1.13226 5.485158,0.35849 l 1.267535,0.97425 0.625492,-0.56814 c 0.344021,-0.31245 0.773209,-0.70527 0.953743,-0.87291 0.678081,-0.62962 3.805841,-2.35566 4.843238,-2.67273 1.438244,-0.43955 3.418826,-0.6103 4.064389,0.0383 0.284356,0.20225 0.588502,0.6983 0.675885,1.10232 0.228349,2.3268 -2.2146,0.53957 -2.461568,0.18657 -0.158944,-0.23358 -0.457486,-0.74877 -0.634686,-0.81782 -0.484497,-0.18882 -2.516988,0.57411 -4.080035,1.5315 -1.965161,1.20367 -1.795449,1.94213 0.376854,1.63976 0.764919,-0.10647 1.108502,-0.0457 1.339326,0.23669 0.234717,0.28721 0.591917,0.34606 1.463894,0.24118 1.021161,-0.12282 1.199665,-0.0721 1.556679,0.44243 0.335602,0.48364 0.612218,0.58114 1.648724,0.58114 1.153083,0 1.288099,0.0637 1.820292,0.85737 0.502886,0.75006 0.68576,0.84909 1.461164,0.79119 1.169975,-0.0874 1.526561,0.18978 1.706988,1.32671 0.138857,0.87497 0.213851,0.94956 1.023929,1.01847 0.709589,0.0604 0.970099,-0.0496 1.384194,-0.58419 0.899244,-1.16096 0.41566,-3.04211 -0.782031,-3.04211 -0.991442,0 -1.635127,-1.62956 -0.738488,-1.56604 1.447127,0.10252 1.981438,0.72486 2.225569,1.89576 0.630759,1.77141 0.197019,3.3192 -1.242646,4.43433 -1.497577,1.16 -3.061734,0.64846 -5.97324,-1.95347 -2.973803,-2.65761 -5.29392,-3.52628 -8.196605,-3.06893 -1.893278,0.29831 -2.030435,0.35039 -1.822517,0.69204 0.07409,0.12172 1.008085,0.16999 2.075556,0.10719 3.22256,-0.18944 5.023268,0.53241 7.627664,3.05772 2.425481,2.35183 4.152445,2.96196 6.074896,2.14624 1.681067,-0.7133 2.709242,-2.09872 2.709242,-3.65056 0,-1.05552 0.285782,-1.10315 0.948443,-0.15808 0.361098,0.51498 0.498862,1.0891 0.498862,2.07894 0,1.3193 -0.0442,1.41292 -1.25395,2.65676 -0.689667,0.70911 -1.584003,1.40894 -1.98741,1.5552 -0.663889,0.24069 -0.726065,0.35314 -0.655456,1.18546 0.04291,0.50573 -0.05285,1.24037 -0.212808,1.63253 -0.384458,0.94258 -1.172727,0.93489 -2.245786,-0.0219 -0.940691,-0.83875 -1.060605,-0.86754 -1.589315,-0.38163 -0.33517,0.30803 -0.482733,0.30483 -1.153056,-0.0248 -1.080569,-0.53146 -1.39565,-1.14919 -1.729295,-3.39043 -0.293371,-1.97069 -0.661662,-3.06201 -1.033346,-3.06201 -0.110254,0 -0.200458,0.16534 -0.200458,0.36744 0,0.22864 -0.227813,0.36745 -0.603044,0.36745 -0.550095,0 -0.647973,0.1448 -0.662272,0.97984 -0.0011,0.0673 0.06734,0.75987 0.152192,1.53888 l 0.15429,1.41642 -0.690862,-0.36281 c -0.379978,-0.19955 -1.029305,-0.75426 -1.442957,-1.23269 -0.798816,-0.92392 -1.249264,-1.10508 -1.249264,-0.50244 0,0.48084 -0.390818,0.47331 -0.573843,-0.0109 -0.07867,-0.20817 -0.512564,-0.5353 -0.96422,-0.72693 -0.451651,-0.19164 -1.167863,-0.79295 -1.591573,-1.33625 -0.846052,-1.08479 -1.202791,-1.1715 -2.520137,-0.61254 -0.486388,0.20638 -0.988108,0.31011 -1.114939,0.23051 -0.34525,-0.21669 -0.278111,-1.48585 0.131226,-2.48074 0.491953,-1.19568 0.460519,-1.49931 -0.253687,-2.4502 -1.554033,-2.06907 -4.316001,-2.02069 -5.303635,0.093 -0.377477,0.80782 -0.379029,0.93663 -0.02047,1.70019 0.375115,0.79884 1.440752,1.54833 1.752008,1.23224 0.08375,-0.0851 -0.02524,-0.42978 -0.242238,-0.76607 -0.776603,-1.20364 -0.364369,-2.09842 0.966762,-2.09842 1.4009,0 1.98616,1.554 1.043566,2.77091 -0.381046,0.49193 -0.742526,0.64882 -1.628218,0.70667 l -1.138436,0.0744 -0.02228,1.04035 c -0.02821,1.3176 -0.618237,2.02165 -1.694238,2.02165 -1.4557556,0 -2.3196815,-1.63378 -1.3400217,-2.53411 0.5848431,-0.5375 1.0780037,-0.51159 1.6092277,0.0845 0.580041,0.65088 0.844262,0.61811 0.844262,-0.10476 0,-0.74782 -1.040934,-1.61002 -1.9437632,-1.61002 -0.8799815,0 -2.0535277,1.02172 -2.4007608,2.09018 -0.349213,1.07455 -0.00863,2.23367 0.9127478,3.10615 1.1854745,1.12258 1.5023198,1.18605 3.0939212,0.61983 1.756739,-0.62499 2.397205,-0.47813 2.157322,0.49463 -0.518463,2.10252 -0.490528,2.25228 0.623847,3.3444 1.406399,1.37833 2.27962,2.84366 1.853834,3.1109 -0.233669,0.14665 -0.09072,0.43355 0.560709,1.12545 1.417888,1.50594 1.821857,2.64602 0.726668,2.05079 -0.267984,-0.14564 -1.037114,-0.2648 -1.709184,-0.2648 -1.146745,0 -1.221948,0.0382 -1.221948,0.6203 0,0.41773 -0.175502,0.68622 -0.537432,0.82219 -0.526854,0.19791 -0.523296,0.20925 0.180914,0.57591 0.395091,0.20571 1.42391,0.45419 2.286261,0.55216 2.136706,0.24275 2.935557,0.6245 3.488427,1.66704 0.459144,0.86581 0.459344,0.89141 0.01082,1.39468 -0.450962,0.50605 -0.448267,0.5208 0.207837,1.13863 0.716413,0.6746 1.205509,1.70447 0.983064,2.06999 -0.29222,0.48016 -1.552149,0.94536 -2.414378,0.89148 -0.8,-0.0499 -0.923252,0.0202 -1.086247,0.61894 -0.184084,0.67619 -1.98815,2.63788 -2.863387,3.11356 -0.744958,0.40489 -2.241121,0.29145 -3.09021,-0.23428 -0.962108,-0.59571 -1.085727,-1.35752 -0.182944,-1.12742 1.407337,0.3587 3.29692,-1.25319 3.899795,-3.32669 0.529961,-1.82273 -0.392443,-3.91244 -2.642738,-5.98715 -1.982953,-1.82822 -2.9883098,-4.6215 -2.7250845,-7.57135 0.135958,-1.52364 0.1038006,-1.83196 -0.1910571,-1.83196 -0.2496695,0 -0.4045343,0.40644 -0.523597,1.37418 -0.4178154,3.39597 0.405277,5.78556 3.0283136,8.79172 1.765828,2.02376 2.412829,3.20782 2.412829,4.41565 0,1.62369 -0.865208,2.60785 -2.690102,3.05998 -0.942587,0.23353 -1.194174,0.0897 -1.891209,-0.12582 -1.9027718,-0.58833 -3.5425891,-1.59144 -1.8712623,-2.64202 0.4743862,-0.29819 1.098308,0.28297 1.3781638,1.14409 0.3412051,1.04991 1.3660945,1.56672 2.2182195,1.11856 0.986729,-0.51895 1.408883,-1.02615 1.408883,-1.69273 0,-0.81523 -0.40413,-1.23477 -1.194027,-1.2396 -1.046317,-0.006 -1.328734,-0.35406 -1.276554,-1.57152 0.04336,-1.01184 -0.01836,-1.14703 -0.6830602,-1.49611 -0.8759746,-0.46001 -1.1925914,-1.20338 -0.9214556,-2.16346 0.1708365,-0.60492 0.095962,-0.80614 -0.5159271,-1.3866 -0.7885821,-0.74807 -0.8259058,-0.89123 -0.4760366,-1.82574 0.1940662,-0.51836 0.1414464,-0.77531 -0.2762621,-1.34907 -0.4528057,-0.62195 -0.4796874,-0.79775 -0.2195308,-1.43557 0.3057166,-0.74953 0.035159,-1.75112 -0.4730493,-1.75112 -0.5533299,0 -2.647933,4.17163 -2.647933,5.27364 0,0.46912 0.1253945,0.60543 0.5569394,0.60543 0.3063181,0 0.9065647,0.0496 1.0251748,0.34759 1.1098766,2.7884 -0.9134196,2.63735 -0.9134196,2.63735 z m 13.3219651,4.3376 c 0,-0.6739 -1.529692,-3.42945 -2.154684,-3.88139 -1.139814,-0.82422 -1.624376,-0.60834 -0.762951,0.33987 0.252673,0.27815 0.755212,1.05688 1.116744,1.73052 0.958905,1.78673 1.800891,2.63344 1.800891,1.811 z m -4.100702,-9.40543 c 0,-0.0677 -0.44122,-0.52792 -0.980485,-1.02268 -1.062833,-0.97512 -1.672908,-1.97687 -1.672908,-2.74697 0,-0.59169 -0.432768,-0.90992 -0.770709,-0.56674 -0.653398,0.66354 1.915489,4.45951 3.017931,4.45951 0.223395,0 0.406171,-0.0554 0.406171,-0.12312 z m 20.503501,-6.93807 c 0,-0.34763 -1.03949,-1.18911 -2.170958,-1.75742 -0.597012,-0.29987 -1.321954,-0.76506 -1.610976,-1.03374 -0.804477,-0.74789 -1.127467,-0.43187 -0.501632,0.49082 0.345451,0.50929 1.162337,1.10974 2.233216,1.64153 1.805065,0.89636 2.05035,0.97517 2.05035,0.65881 z m -9.529914,-4.44901 c 0.252201,-0.41441 -1.966601,-2.59168 -2.990977,-2.93501 -1.14992,-0.38539 -1.922686,-0.19432 -1.467362,0.36282 0.163853,0.2005 0.507115,0.36455 0.762795,0.36455 0.756181,0 1.818125,0.67423 2.507436,1.592 0.667625,0.88887 0.936901,1.0284 1.188108,0.61564 z m -8.888092,4.2913 c -0.909355,-0.31128 -1.792842,-0.7159 -1.963299,-0.89913 -0.170458,-0.18322 -0.606765,-1.19584 -0.969572,-2.25026 -0.694873,-2.0195 -0.613041,-2.65801 0.276197,-2.15512 0.247812,0.14015 1.127246,0.49401 1.954291,0.78637 0.827049,0.29237 1.613549,0.66596 1.747778,0.83021 0.187463,0.22938 1.452247,3.9122 1.452247,4.22867 0,0.1851 -1.026554,-0.0371 -2.497642,-0.54074 z"
         style="fill:#000000" />
      <path
         inkscape:connector-curvature="0"
         id="path4927"
         d="m 28.928571,772.7088 c 120.178579,0 120.178579,0 120.178579,0"
         style="fill:none;fill-rule:evenodd;stroke:#000000;stroke-width:0.49131626;stroke-linecap:butt;stroke-linejoin:miter;stroke-miterlimit:4;stroke-dasharray:none;stroke-opacity:1" />
      <path
         style="fill:none;fill-rule:evenodd;stroke:#000000;stroke-width:0.46159562;stroke-linecap:butt;stroke-linejoin:miter;stroke-miterlimit:4;stroke-dasharray:none;stroke-opacity:1"
         d="m 35.242024,777.12822 c 106.078676,0 106.078676,0 106.078676,0"
         id="path4929"
         inkscape:connector-curvature="0" />
      <path
         style="fill:#000000"
         d="m 172.02983,799.44899 c 2.68733,-0.31442 1.8853,-5.33829 -1.56805,-9.82213 -0.80503,-1.04528 -1.13744,-1.6681 -0.99401,-1.86247 1.25579,-1.70183 1.62562,-2.457 1.72676,-3.52596 0.2221,-2.34728 -1.0328,-4.20243 -3.22724,-4.77093 -1.08723,-0.28165 -1.18604,-0.3707 -1.31661,-1.18643 -0.17676,-1.10434 -0.71243,-1.94604 -1.7265,-2.71283 -1.66033,-1.25548 -3.54564,-1.13226 -5.48516,0.35849 l -1.26754,0.97425 -0.62549,-0.56814 c -0.34402,-0.31245 -0.77321,-0.70527 -0.95374,-0.87291 -0.67808,-0.62962 -3.80584,-2.35566 -4.84324,-2.67273 -1.43824,-0.43955 -3.41883,-0.6103 -4.06439,0.0383 -0.28435,0.20225 -0.5885,0.6983 -0.67588,1.10232 -0.22835,2.3268 2.2146,0.53957 2.46156,0.18657 0.15895,-0.23358 0.45749,-0.74877 0.63469,-0.81782 0.4845,-0.18882 2.51699,0.57411 4.08004,1.5315 1.96516,1.20367 1.79544,1.94213 -0.37686,1.63976 -0.76492,-0.10647 -1.1085,-0.0457 -1.33932,0.23669 -0.23472,0.28721 -0.59192,0.34606 -1.4639,0.24118 -1.02116,-0.12282 -1.19966,-0.0721 -1.55668,0.44243 -0.3356,0.48364 -0.61222,0.58114 -1.64872,0.58114 -1.15308,0 -1.2881,0.0637 -1.82029,0.85737 -0.50289,0.75006 -0.68576,0.84909 -1.46117,0.79119 -1.16997,-0.0874 -1.52656,0.18978 -1.70699,1.32671 -0.13885,0.87497 -0.21385,0.94956 -1.02392,1.01847 -0.70959,0.0604 -0.9701,-0.0496 -1.3842,-0.58419 -0.89924,-1.16096 -0.41566,-3.04211 0.78203,-3.04211 0.99144,0 1.63513,-1.62956 0.73849,-1.56604 -1.44713,0.10252 -1.98143,0.72486 -2.22557,1.89576 -0.63075,1.77141 -0.19701,3.3192 1.24265,4.43433 1.49757,1.16 3.06173,0.64846 5.97324,-1.95347 2.9738,-2.65761 5.29392,-3.52628 8.1966,-3.06893 1.89328,0.29831 2.03044,0.35039 1.82252,0.69204 -0.0741,0.12172 -1.00809,0.16999 -2.07556,0.10719 -3.22256,-0.18944 -5.02326,0.53241 -7.62766,3.05772 -2.42548,2.35183 -4.15245,2.96196 -6.0749,2.14624 -1.68106,-0.7133 -2.70924,-2.09872 -2.70924,-3.65056 0,-1.05552 -0.28578,-1.10315 -0.94844,-0.15808 -0.3611,0.51498 -0.49886,1.0891 -0.49886,2.07894 0,1.3193 0.0442,1.41292 1.25395,2.65676 0.68967,0.70911 1.584,1.40894 1.98741,1.5552 0.66389,0.24069 0.72606,0.35314 0.65545,1.18546 -0.0429,0.50573 0.0529,1.24037 0.21281,1.63253 0.38446,0.94258 1.17273,0.93489 2.24579,-0.0219 0.94069,-0.83875 1.0606,-0.86754 1.58931,-0.38163 0.33517,0.30803 0.48273,0.30483 1.15306,-0.0248 1.08057,-0.53146 1.39565,-1.14919 1.72929,-3.39043 0.29337,-1.97069 0.66166,-3.06201 1.03335,-3.06201 0.11025,0 0.20046,0.16534 0.20046,0.36744 0,0.22864 0.22781,0.36745 0.60304,0.36745 0.5501,0 0.64797,0.1448 0.66227,0.97984 0.001,0.0673 -0.0673,0.75987 -0.15219,1.53888 l -0.15429,1.41642 0.69086,-0.36281 c 0.37998,-0.19955 1.02931,-0.75426 1.44296,-1.23269 0.79882,-0.92392 1.24926,-1.10508 1.24926,-0.50244 0,0.48084 0.39082,0.47331 0.57385,-0.0109 0.0787,-0.20817 0.51256,-0.5353 0.96422,-0.72693 0.45165,-0.19164 1.16786,-0.79295 1.59157,-1.33625 0.84605,-1.08479 1.20279,-1.1715 2.52014,-0.61254 0.48638,0.20638 0.9881,0.31011 1.11494,0.23051 0.34525,-0.21669 0.27811,-1.48585 -0.13123,-2.48074 -0.49195,-1.19568 -0.46052,-1.49931 0.25369,-2.4502 1.55403,-2.06907 4.316,-2.02069 5.30363,0.093 0.37748,0.80782 0.37903,0.93663 0.0205,1.70019 -0.37511,0.79884 -1.44075,1.54833 -1.75201,1.23224 -0.0837,-0.0851 0.0252,-0.42978 0.24224,-0.76607 0.7766,-1.20364 0.36437,-2.09842 -0.96676,-2.09842 -1.4009,0 -1.98616,1.554 -1.04357,2.77091 0.38105,0.49193 0.74253,0.64882 1.62822,0.70667 l 1.13844,0.0744 0.0223,1.04035 c 0.0282,1.3176 0.61823,2.02165 1.69424,2.02165 1.45575,0 2.31968,-1.63378 1.34002,-2.53411 -0.58485,-0.5375 -1.07801,-0.51159 -1.60923,0.0845 -0.58004,0.65088 -0.84426,0.61811 -0.84426,-0.10476 0,-0.74782 1.04093,-1.61002 1.94376,-1.61002 0.87998,0 2.05353,1.02172 2.40076,2.09018 0.34921,1.07455 0.009,2.23367 -0.91275,3.10615 -1.18547,1.12258 -1.50232,1.18605 -3.09392,0.61983 -1.75674,-0.62499 -2.3972,-0.47813 -2.15732,0.49463 0.51846,2.10252 0.49053,2.25228 -0.62385,3.3444 -1.4064,1.37833 -2.27962,2.84366 -1.85383,3.1109 0.23367,0.14665 0.0907,0.43355 -0.56071,1.12545 -1.41789,1.50594 -1.82186,2.64602 -0.72667,2.05079 0.26799,-0.14564 1.03712,-0.2648 1.70919,-0.2648 1.14674,0 1.22194,0.0382 1.22194,0.6203 0,0.41773 0.17551,0.68622 0.53744,0.82219 0.52685,0.19791 0.52329,0.20925 -0.18092,0.57591 -0.39509,0.20571 -1.42391,0.45419 -2.28626,0.55216 -2.1367,0.24275 -2.93556,0.6245 -3.48843,1.66704 -0.45914,0.86581 -0.45934,0.89141 -0.0108,1.39468 0.45097,0.50605 0.44827,0.5208 -0.20783,1.13863 -0.71642,0.6746 -1.20551,1.70447 -0.98307,2.06999 0.29222,0.48016 1.55215,0.94536 2.41438,0.89148 0.8,-0.0499 0.92325,0.0202 1.08625,0.61894 0.18408,0.67619 1.98815,2.63788 2.86339,3.11356 0.74495,0.40489 2.24112,0.29145 3.09021,-0.23428 0.9621,-0.59571 1.08572,-1.35752 0.18294,-1.12742 -1.40734,0.3587 -3.29692,-1.25319 -3.8998,-3.32669 -0.52996,-1.82273 0.39245,-3.91244 2.64274,-5.98715 1.98296,-1.82822 2.98831,-4.6215 2.72509,-7.57135 -0.13596,-1.52364 -0.1038,-1.83196 0.19105,-1.83196 0.24967,0 0.40454,0.40644 0.5236,1.37418 0.41782,3.39597 -0.40528,5.78556 -3.02831,8.79172 -1.76583,2.02376 -2.41283,3.20782 -2.41283,4.41565 0,1.62369 0.86521,2.60785 2.6901,3.05998 0.94259,0.23353 1.19417,0.0897 1.89121,-0.12582 1.90277,-0.58833 3.54259,-1.59144 1.87126,-2.64202 -0.47438,-0.29819 -1.09831,0.28297 -1.37816,1.14409 -0.34121,1.04991 -1.3661,1.56672 -2.21822,1.11856 -0.98673,-0.51895 -1.40888,-1.02615 -1.40888,-1.69273 0,-0.81523 0.40413,-1.23477 1.19402,-1.2396 1.04632,-0.006 1.32874,-0.35406 1.27656,-1.57152 -0.0434,-1.01184 0.0184,-1.14703 0.68306,-1.49611 0.87597,-0.46001 1.19259,-1.20338 0.92145,-2.16346 -0.17083,-0.60492 -0.096,-0.80614 0.51593,-1.3866 0.78858,-0.74807 0.82591,-0.89123 0.47604,-1.82574 -0.19407,-0.51836 -0.14145,-0.77531 0.27626,-1.34907 0.4528,-0.62195 0.47969,-0.79775 0.21953,-1.43557 -0.30572,-0.74953 -0.0352,-1.75112 0.47305,-1.75112 0.55333,0 2.64793,4.17163 2.64793,5.27364 0,0.46912 -0.12539,0.60543 -0.55694,0.60543 -0.30632,0 -0.90656,0.0496 -1.02517,0.34759 -1.10988,2.7884 0.91342,2.63735 0.91342,2.63735 z m -13.32197,4.3376 c 0,-0.6739 1.52969,-3.42945 2.15469,-3.88139 1.13981,-0.82422 1.62437,-0.60834 0.76295,0.33987 -0.25268,0.27815 -0.75522,1.05688 -1.11675,1.73052 -0.9589,1.78673 -1.80089,2.63344 -1.80089,1.811 z m 4.1007,-9.40543 c 0,-0.0677 0.44122,-0.52792 0.98049,-1.02268 1.06283,-0.97512 1.67291,-1.97687 1.67291,-2.74697 0,-0.59169 0.43276,-0.90992 0.77071,-0.56674 0.65339,0.66354 -1.91549,4.45951 -3.01794,4.45951 -0.22339,0 -0.40617,-0.0554 -0.40617,-0.12312 z m -20.5035,-6.93807 c 0,-0.34763 1.03949,-1.18911 2.17096,-1.75742 0.59701,-0.29987 1.32195,-0.76506 1.61098,-1.03374 0.80447,-0.74789 1.12746,-0.43187 0.50163,0.49082 -0.34545,0.50929 -1.16234,1.10974 -2.23322,1.64153 -1.80506,0.89636 -2.05035,0.97517 -2.05035,0.65881 z m 9.52992,-4.44901 c -0.2522,-0.41441 1.9666,-2.59168 2.99097,-2.93501 1.14992,-0.38539 1.92269,-0.19432 1.46737,0.36282 -0.16386,0.2005 -0.50712,0.36455 -0.7628,0.36455 -0.75618,0 -1.81812,0.67423 -2.50744,1.592 -0.66762,0.88887 -0.9369,1.0284 -1.1881,0.61564 z m 8.88809,4.2913 c 0.90935,-0.31128 1.79284,-0.7159 1.9633,-0.89913 0.17046,-0.18322 0.60676,-1.19584 0.96957,-2.25026 0.69487,-2.0195 0.61304,-2.65801 -0.2762,-2.15512 -0.24781,0.14015 -1.12724,0.49401 -1.95429,0.78637 -0.82705,0.29237 -1.61355,0.66596 -1.74778,0.83021 -0.18746,0.22938 -1.45224,3.9122 -1.45224,4.22867 0,0.1851 1.02655,-0.0371 2.49764,-0.54074 z"
         id="path4931"
         inkscape:connector-curvature="0"
         sodipodi:nodetypes="csssssssccccccccsscscsccsccsscsssccssssssccssscsssscscssscccscssccccssccsscssssscsscscsscsssccccscssssssssssssssscscssscssssscsscssssssssssccsscccsccccscscsc" />
    </g>
    <g
       id="g4933"
       transform="matrix(2.9973913,0,0,-2.9983669,0.61534657,3356.4957)">
      <path
         style="fill:#000000"
         d="m 5.0905769,799.38585 c -2.6873288,-0.31442 -1.8853004,-5.33829 1.5680419,-9.82213 0.8050339,-1.04528 1.1374475,-1.6681 0.9940176,-1.86247 -1.2557905,-1.70183 -1.6256226,-2.457 -1.7267678,-3.52596 -0.2220939,-2.34728 1.0328059,-4.20243 3.2272428,-4.77093 1.0872276,-0.28165 1.1860446,-0.3707 1.3166116,-1.18643 0.176764,-1.10434 0.712434,-1.94604 1.726504,-2.71283 1.660326,-1.25548 3.545637,-1.13226 5.485158,0.35849 l 1.267535,0.97425 0.625492,-0.56814 c 0.344021,-0.31245 0.773209,-0.70527 0.953743,-0.87291 0.678081,-0.62962 3.805841,-2.35566 4.843238,-2.67273 1.438244,-0.43955 3.418826,-0.6103 4.064389,0.0383 0.284356,0.20225 0.588502,0.6983 0.675885,1.10232 0.228349,2.3268 -2.2146,0.53957 -2.461568,0.18657 -0.158944,-0.23358 -0.457486,-0.74877 -0.634686,-0.81782 -0.484497,-0.18882 -2.516988,0.57411 -4.080035,1.5315 -1.965161,1.20367 -1.795449,1.94213 0.376854,1.63976 0.764919,-0.10647 1.108502,-0.0457 1.339326,0.23669 0.234717,0.28721 0.591917,0.34606 1.463894,0.24118 1.021161,-0.12282 1.199665,-0.0721 1.556679,0.44243 0.335602,0.48364 0.612218,0.58114 1.648724,0.58114 1.153083,0 1.288099,0.0637 1.820292,0.85737 0.502886,0.75006 0.68576,0.84909 1.461164,0.79119 1.169975,-0.0874 1.526561,0.18978 1.706988,1.32671 0.138857,0.87497 0.213851,0.94956 1.023929,1.01847 0.709589,0.0604 0.970099,-0.0496 1.384194,-0.58419 0.899244,-1.16096 0.41566,-3.04211 -0.782031,-3.04211 -0.991442,0 -1.635127,-1.62956 -0.738488,-1.56604 1.447127,0.10252 1.981438,0.72486 2.225569,1.89576 0.630759,1.77141 0.197019,3.3192 -1.242646,4.43433 -1.497577,1.16 -3.061734,0.64846 -5.97324,-1.95347 -2.973803,-2.65761 -5.29392,-3.52628 -8.196605,-3.06893 -1.893278,0.29831 -2.030435,0.35039 -1.822517,0.69204 0.07409,0.12172 1.008085,0.16999 2.075556,0.10719 3.22256,-0.18944 5.023268,0.53241 7.627664,3.05772 2.425481,2.35183 4.152445,2.96196 6.074896,2.14624 1.681067,-0.7133 2.709242,-2.09872 2.709242,-3.65056 0,-1.05552 0.285782,-1.10315 0.948443,-0.15808 0.361098,0.51498 0.498862,1.0891 0.498862,2.07894 0,1.3193 -0.0442,1.41292 -1.25395,2.65676 -0.689667,0.70911 -1.584003,1.40894 -1.98741,1.5552 -0.663889,0.24069 -0.726065,0.35314 -0.655456,1.18546 0.04291,0.50573 -0.05285,1.24037 -0.212808,1.63253 -0.384458,0.94258 -1.172727,0.93489 -2.245786,-0.0219 -0.940691,-0.83875 -1.060605,-0.86754 -1.589315,-0.38163 -0.33517,0.30803 -0.482733,0.30483 -1.153056,-0.0248 -1.080569,-0.53146 -1.39565,-1.14919 -1.729295,-3.39043 -0.293371,-1.97069 -0.661662,-3.06201 -1.033346,-3.06201 -0.110254,0 -0.200458,0.16534 -0.200458,0.36744 0,0.22864 -0.227813,0.36745 -0.603044,0.36745 -0.550095,0 -0.647973,0.1448 -0.662272,0.97984 -0.0011,0.0673 0.06734,0.75987 0.152192,1.53888 l 0.15429,1.41642 -0.690862,-0.36281 c -0.379978,-0.19955 -1.029305,-0.75426 -1.442957,-1.23269 -0.798816,-0.92392 -1.249264,-1.10508 -1.249264,-0.50244 0,0.48084 -0.390818,0.47331 -0.573843,-0.0109 -0.07867,-0.20817 -0.512564,-0.5353 -0.96422,-0.72693 -0.451651,-0.19164 -1.167863,-0.79295 -1.591573,-1.33625 -0.846052,-1.08479 -1.202791,-1.1715 -2.520137,-0.61254 -0.486388,0.20638 -0.988108,0.31011 -1.114939,0.23051 -0.34525,-0.21669 -0.278111,-1.48585 0.131226,-2.48074 0.491953,-1.19568 0.460519,-1.49931 -0.253687,-2.4502 -1.554033,-2.06907 -4.316001,-2.02069 -5.303635,0.093 -0.377477,0.80782 -0.379029,0.93663 -0.02047,1.70019 0.375115,0.79884 1.440752,1.54833 1.752008,1.23224 0.08375,-0.0851 -0.02524,-0.42978 -0.242238,-0.76607 -0.776603,-1.20364 -0.364369,-2.09842 0.966762,-2.09842 1.4009,0 1.98616,1.554 1.043566,2.77091 -0.381046,0.49193 -0.742526,0.64882 -1.628218,0.70667 l -1.138436,0.0744 -0.02228,1.04035 c -0.02821,1.3176 -0.618237,2.02165 -1.694238,2.02165 -1.4557556,0 -2.3196815,-1.63378 -1.3400217,-2.53411 0.5848431,-0.5375 1.0780037,-0.51159 1.6092277,0.0845 0.580041,0.65088 0.844262,0.61811 0.844262,-0.10476 0,-0.74782 -1.040934,-1.61002 -1.9437632,-1.61002 -0.8799815,0 -2.0535277,1.02172 -2.4007608,2.09018 -0.349213,1.07455 -0.00863,2.23367 0.9127478,3.10615 1.1854745,1.12258 1.5023198,1.18605 3.0939212,0.61983 1.756739,-0.62499 2.397205,-0.47813 2.157322,0.49463 -0.518463,2.10252 -0.490528,2.25228 0.623847,3.3444 1.406399,1.37833 2.27962,2.84366 1.853834,3.1109 -0.233669,0.14665 -0.09072,0.43355 0.560709,1.12545 1.417888,1.50594 1.821857,2.64602 0.726668,2.05079 -0.267984,-0.14564 -1.037114,-0.2648 -1.709184,-0.2648 -1.146745,0 -1.221948,0.0382 -1.221948,0.6203 0,0.41773 -0.175502,0.68622 -0.537432,0.82219 -0.526854,0.19791 -0.523296,0.20925 0.180914,0.57591 0.395091,0.20571 1.42391,0.45419 2.286261,0.55216 2.136706,0.24275 2.935557,0.6245 3.488427,1.66704 0.459144,0.86581 0.459344,0.89141 0.01082,1.39468 -0.450962,0.50605 -0.448267,0.5208 0.207837,1.13863 0.716413,0.6746 1.205509,1.70447 0.983064,2.06999 -0.29222,0.48016 -1.552149,0.94536 -2.414378,0.89148 -0.8,-0.0499 -0.923252,0.0202 -1.086247,0.61894 -0.184084,0.67619 -1.98815,2.63788 -2.863387,3.11356 -0.744958,0.40489 -2.241121,0.29145 -3.09021,-0.23428 -0.962108,-0.59571 -1.085727,-1.35752 -0.182944,-1.12742 1.407337,0.3587 3.29692,-1.25319 3.899795,-3.32669 0.529961,-1.82273 -0.392443,-3.91244 -2.642738,-5.98715 -1.982953,-1.82822 -2.9883098,-4.6215 -2.7250845,-7.57135 0.135958,-1.52364 0.1038006,-1.83196 -0.1910571,-1.83196 -0.2496695,0 -0.4045343,0.40644 -0.523597,1.37418 -0.4178154,3.39597 0.405277,5.78556 3.0283136,8.79172 1.765828,2.02376 2.412829,3.20782 2.412829,4.41565 0,1.62369 -0.865208,2.60785 -2.690102,3.05998 -0.942587,0.23353 -1.194174,0.0897 -1.891209,-0.12582 -1.9027718,-0.58833 -3.5425891,-1.59144 -1.8712623,-2.64202 0.4743862,-0.29819 1.098308,0.28297 1.3781638,1.14409 0.3412051,1.04991 1.3660945,1.56672 2.2182195,1.11856 0.986729,-0.51895 1.408883,-1.02615 1.408883,-1.69273 0,-0.81523 -0.40413,-1.23477 -1.194027,-1.2396 -1.046317,-0.006 -1.328734,-0.35406 -1.276554,-1.57152 0.04336,-1.01184 -0.01836,-1.14703 -0.6830602,-1.49611 -0.8759746,-0.46001 -1.1925914,-1.20338 -0.9214556,-2.16346 0.1708365,-0.60492 0.095962,-0.80614 -0.5159271,-1.3866 -0.7885821,-0.74807 -0.8259058,-0.89123 -0.4760366,-1.82574 0.1940662,-0.51836 0.1414464,-0.77531 -0.2762621,-1.34907 -0.4528057,-0.62195 -0.4796874,-0.79775 -0.2195308,-1.43557 0.3057166,-0.74953 0.035159,-1.75112 -0.4730493,-1.75112 -0.5533299,0 -2.647933,4.17163 -2.647933,5.27364 0,0.46912 0.1253945,0.60543 0.5569394,0.60543 0.3063181,0 0.9065647,0.0496 1.0251748,0.34759 1.1098766,2.7884 -0.9134196,2.63735 -0.9134196,2.63735 z m 13.3219651,4.3376 c 0,-0.6739 -1.529692,-3.42945 -2.154684,-3.88139 -1.139814,-0.82422 -1.624376,-0.60834 -0.762951,0.33987 0.252673,0.27815 0.755212,1.05688 1.116744,1.73052 0.958905,1.78673 1.800891,2.63344 1.800891,1.811 z m -4.100702,-9.40543 c 0,-0.0677 -0.44122,-0.52792 -0.980485,-1.02268 -1.062833,-0.97512 -1.672908,-1.97687 -1.672908,-2.74697 0,-0.59169 -0.432768,-0.90992 -0.770709,-0.56674 -0.653398,0.66354 1.915489,4.45951 3.017931,4.45951 0.223395,0 0.406171,-0.0554 0.406171,-0.12312 z m 20.503501,-6.93807 c 0,-0.34763 -1.03949,-1.18911 -2.170958,-1.75742 -0.597012,-0.29987 -1.321954,-0.76506 -1.610976,-1.03374 -0.804477,-0.74789 -1.127467,-0.43187 -0.501632,0.49082 0.345451,0.50929 1.162337,1.10974 2.233216,1.64153 1.805065,0.89636 2.05035,0.97517 2.05035,0.65881 z m -9.529914,-4.44901 c 0.252201,-0.41441 -1.966601,-2.59168 -2.990977,-2.93501 -1.14992,-0.38539 -1.922686,-0.19432 -1.467362,0.36282 0.163853,0.2005 0.507115,0.36455 0.762795,0.36455 0.756181,0 1.818125,0.67423 2.507436,1.592 0.667625,0.88887 0.936901,1.0284 1.188108,0.61564 z m -8.888092,4.2913 c -0.909355,-0.31128 -1.792842,-0.7159 -1.963299,-0.89913 -0.170458,-0.18322 -0.606765,-1.19584 -0.969572,-2.25026 -0.694873,-2.0195 -0.613041,-2.65801 0.276197,-2.15512 0.247812,0.14015 1.127246,0.49401 1.954291,0.78637 0.827049,0.29237 1.613549,0.66596 1.747778,0.83021 0.187463,0.22938 1.452247,3.9122 1.452247,4.22867 0,0.1851 -1.026554,-0.0371 -2.497642,-0.54074 z"
         id="path4935"
         inkscape:connector-curvature="0"
         sodipodi:nodetypes="csssssssccccccccsscscsccsccsscsssccssssssccssscsssscscssscccscssccccssccsscssssscsscscsscsssccccscssssssssssssssscscssscssssscsscssssssssssccsscccsccccscscsc" />
      <path
         style="fill:none;fill-rule:evenodd;stroke:#000000;stroke-width:0.49131626;stroke-linecap:butt;stroke-linejoin:miter;stroke-miterlimit:4;stroke-dasharray:none;stroke-opacity:1"
         d="m 28.928571,772.7088 c 120.178579,0 120.178579,0 120.178579,0"
         id="path4937"
         inkscape:connector-curvature="0" />
      <path
         inkscape:connector-curvature="0"
         id="path4939"
         d="m 35.242024,777.12822 c 106.078676,0 106.078676,0 106.078676,0"
         style="fill:none;fill-rule:evenodd;stroke:#000000;stroke-width:0.46159562;stroke-linecap:butt;stroke-linejoin:miter;stroke-miterlimit:4;stroke-dasharray:none;stroke-opacity:1" />
      <path
         sodipodi:nodetypes="csssssssccccccccsscscsccsccsscsssccssssssccssscsssscscssscccscssccccssccsscssssscsscscsscsssccccscssssssssssssssscscssscssssscsscssssssssssccsscccsccccscscsc"
         inkscape:connector-curvature="0"
         id="path4941"
         d="m 172.02983,799.44899 c 2.68733,-0.31442 1.8853,-5.33829 -1.56805,-9.82213 -0.80503,-1.04528 -1.13744,-1.6681 -0.99401,-1.86247 1.25579,-1.70183 1.62562,-2.457 1.72676,-3.52596 0.2221,-2.34728 -1.0328,-4.20243 -3.22724,-4.77093 -1.08723,-0.28165 -1.18604,-0.3707 -1.31661,-1.18643 -0.17676,-1.10434 -0.71243,-1.94604 -1.7265,-2.71283 -1.66033,-1.25548 -3.54564,-1.13226 -5.48516,0.35849 l -1.26754,0.97425 -0.62549,-0.56814 c -0.34402,-0.31245 -0.77321,-0.70527 -0.95374,-0.87291 -0.67808,-0.62962 -3.80584,-2.35566 -4.84324,-2.67273 -1.43824,-0.43955 -3.41883,-0.6103 -4.06439,0.0383 -0.28435,0.20225 -0.5885,0.6983 -0.67588,1.10232 -0.22835,2.3268 2.2146,0.53957 2.46156,0.18657 0.15895,-0.23358 0.45749,-0.74877 0.63469,-0.81782 0.4845,-0.18882 2.51699,0.57411 4.08004,1.5315 1.96516,1.20367 1.79544,1.94213 -0.37686,1.63976 -0.76492,-0.10647 -1.1085,-0.0457 -1.33932,0.23669 -0.23472,0.28721 -0.59192,0.34606 -1.4639,0.24118 -1.02116,-0.12282 -1.19966,-0.0721 -1.55668,0.44243 -0.3356,0.48364 -0.61222,0.58114 -1.64872,0.58114 -1.15308,0 -1.2881,0.0637 -1.82029,0.85737 -0.50289,0.75006 -0.68576,0.84909 -1.46117,0.79119 -1.16997,-0.0874 -1.52656,0.18978 -1.70699,1.32671 -0.13885,0.87497 -0.21385,0.94956 -1.02392,1.01847 -0.70959,0.0604 -0.9701,-0.0496 -1.3842,-0.58419 -0.89924,-1.16096 -0.41566,-3.04211 0.78203,-3.04211 0.99144,0 1.63513,-1.62956 0.73849,-1.56604 -1.44713,0.10252 -1.98143,0.72486 -2.22557,1.89576 -0.63075,1.77141 -0.19701,3.3192 1.24265,4.43433 1.49757,1.16 3.06173,0.64846 5.97324,-1.95347 2.9738,-2.65761 5.29392,-3.52628 8.1966,-3.06893 1.89328,0.29831 2.03044,0.35039 1.82252,0.69204 -0.0741,0.12172 -1.00809,0.16999 -2.07556,0.10719 -3.22256,-0.18944 -5.02326,0.53241 -7.62766,3.05772 -2.42548,2.35183 -4.15245,2.96196 -6.0749,2.14624 -1.68106,-0.7133 -2.70924,-2.09872 -2.70924,-3.65056 0,-1.05552 -0.28578,-1.10315 -0.94844,-0.15808 -0.3611,0.51498 -0.49886,1.0891 -0.49886,2.07894 0,1.3193 0.0442,1.41292 1.25395,2.65676 0.68967,0.70911 1.584,1.40894 1.98741,1.5552 0.66389,0.24069 0.72606,0.35314 0.65545,1.18546 -0.0429,0.50573 0.0529,1.24037 0.21281,1.63253 0.38446,0.94258 1.17273,0.93489 2.24579,-0.0219 0.94069,-0.83875 1.0606,-0.86754 1.58931,-0.38163 0.33517,0.30803 0.48273,0.30483 1.15306,-0.0248 1.08057,-0.53146 1.39565,-1.14919 1.72929,-3.39043 0.29337,-1.97069 0.66166,-3.06201 1.03335,-3.06201 0.11025,0 0.20046,0.16534 0.20046,0.36744 0,0.22864 0.22781,0.36745 0.60304,0.36745 0.5501,0 0.64797,0.1448 0.66227,0.97984 0.001,0.0673 -0.0673,0.75987 -0.15219,1.53888 l -0.15429,1.41642 0.69086,-0.36281 c 0.37998,-0.19955 1.02931,-0.75426 1.44296,-1.23269 0.79882,-0.92392 1.24926,-1.10508 1.24926,-0.50244 0,0.48084 0.39082,0.47331 0.57385,-0.0109 0.0787,-0.20817 0.51256,-0.5353 0.96422,-0.72693 0.45165,-0.19164 1.16786,-0.79295 1.59157,-1.33625 0.84605,-1.08479 1.20279,-1.1715 2.52014,-0.61254 0.48638,0.20638 0.9881,0.31011 1.11494,0.23051 0.34525,-0.21669 0.27811,-1.48585 -0.13123,-2.48074 -0.49195,-1.19568 -0.46052,-1.49931 0.25369,-2.4502 1.55403,-2.06907 4.316,-2.02069 5.30363,0.093 0.37748,0.80782 0.37903,0.93663 0.0205,1.70019 -0.37511,0.79884 -1.44075,1.54833 -1.75201,1.23224 -0.0837,-0.0851 0.0252,-0.42978 0.24224,-0.76607 0.7766,-1.20364 0.36437,-2.09842 -0.96676,-2.09842 -1.4009,0 -1.98616,1.554 -1.04357,2.77091 0.38105,0.49193 0.74253,0.64882 1.62822,0.70667 l 1.13844,0.0744 0.0223,1.04035 c 0.0282,1.3176 0.61823,2.02165 1.69424,2.02165 1.45575,0 2.31968,-1.63378 1.34002,-2.53411 -0.58485,-0.5375 -1.07801,-0.51159 -1.60923,0.0845 -0.58004,0.65088 -0.84426,0.61811 -0.84426,-0.10476 0,-0.74782 1.04093,-1.61002 1.94376,-1.61002 0.87998,0 2.05353,1.02172 2.40076,2.09018 0.34921,1.07455 0.009,2.23367 -0.91275,3.10615 -1.18547,1.12258 -1.50232,1.18605 -3.09392,0.61983 -1.75674,-0.62499 -2.3972,-0.47813 -2.15732,0.49463 0.51846,2.10252 0.49053,2.25228 -0.62385,3.3444 -1.4064,1.37833 -2.27962,2.84366 -1.85383,3.1109 0.23367,0.14665 0.0907,0.43355 -0.56071,1.12545 -1.41789,1.50594 -1.82186,2.64602 -0.72667,2.05079 0.26799,-0.14564 1.03712,-0.2648 1.70919,-0.2648 1.14674,0 1.22194,0.0382 1.22194,0.6203 0,0.41773 0.17551,0.68622 0.53744,0.82219 0.52685,0.19791 0.52329,0.20925 -0.18092,0.57591 -0.39509,0.20571 -1.42391,0.45419 -2.28626,0.55216 -2.1367,0.24275 -2.93556,0.6245 -3.48843,1.66704 -0.45914,0.86581 -0.45934,0.89141 -0.0108,1.39468 0.45097,0.50605 0.44827,0.5208 -0.20783,1.13863 -0.71642,0.6746 -1.20551,1.70447 -0.98307,2.06999 0.29222,0.48016 1.55215,0.94536 2.41438,0.89148 0.8,-0.0499 0.92325,0.0202 1.08625,0.61894 0.18408,0.67619 1.98815,2.63788 2.86339,3.11356 0.74495,0.40489 2.24112,0.29145 3.09021,-0.23428 0.9621,-0.59571 1.08572,-1.35752 0.18294,-1.12742 -1.40734,0.3587 -3.29692,-1.25319 -3.8998,-3.32669 -0.52996,-1.82273 0.39245,-3.91244 2.64274,-5.98715 1.98296,-1.82822 2.98831,-4.6215 2.72509,-7.57135 -0.13596,-1.52364 -0.1038,-1.83196 0.19105,-1.83196 0.24967,0 0.40454,0.40644 0.5236,1.37418 0.41782,3.39597 -0.40528,5.78556 -3.02831,8.79172 -1.76583,2.02376 -2.41283,3.20782 -2.41283,4.41565 0,1.62369 0.86521,2.60785 2.6901,3.05998 0.94259,0.23353 1.19417,0.0897 1.89121,-0.12582 1.90277,-0.58833 3.54259,-1.59144 1.87126,-2.64202 -0.47438,-0.29819 -1.09831,0.28297 -1.37816,1.14409 -0.34121,1.04991 -1.3661,1.56672 -2.21822,1.11856 -0.98673,-0.51895 -1.40888,-1.02615 -1.40888,-1.69273 0,-0.81523 0.40413,-1.23477 1.19402,-1.2396 1.04632,-0.006 1.32874,-0.35406 1.27656,-1.57152 -0.0434,-1.01184 0.0184,-1.14703 0.68306,-1.49611 0.87597,-0.46001 1.19259,-1.20338 0.92145,-2.16346 -0.17083,-0.60492 -0.096,-0.80614 0.51593,-1.3866 0.78858,-0.74807 0.82591,-0.89123 0.47604,-1.82574 -0.19407,-0.51836 -0.14145,-0.77531 0.27626,-1.34907 0.4528,-0.62195 0.47969,-0.79775 0.21953,-1.43557 -0.30572,-0.74953 -0.0352,-1.75112 0.47305,-1.75112 0.55333,0 2.64793,4.17163 2.64793,5.27364 0,0.46912 -0.12539,0.60543 -0.55694,0.60543 -0.30632,0 -0.90656,0.0496 -1.02517,0.34759 -1.10988,2.7884 0.91342,2.63735 0.91342,2.63735 z m -13.32197,4.3376 c 0,-0.6739 1.52969,-3.42945 2.15469,-3.88139 1.13981,-0.82422 1.62437,-0.60834 0.76295,0.33987 -0.25268,0.27815 -0.75522,1.05688 -1.11675,1.73052 -0.9589,1.78673 -1.80089,2.63344 -1.80089,1.811 z m 4.1007,-9.40543 c 0,-0.0677 0.44122,-0.52792 0.98049,-1.02268 1.06283,-0.97512 1.67291,-1.97687 1.67291,-2.74697 0,-0.59169 0.43276,-0.90992 0.77071,-0.56674 0.65339,0.66354 -1.91549,4.45951 -3.01794,4.45951 -0.22339,0 -0.40617,-0.0554 -0.40617,-0.12312 z m -20.5035,-6.93807 c 0,-0.34763 1.03949,-1.18911 2.17096,-1.75742 0.59701,-0.29987 1.32195,-0.76506 1.61098,-1.03374 0.80447,-0.74789 1.12746,-0.43187 0.50163,0.49082 -0.34545,0.50929 -1.16234,1.10974 -2.23322,1.64153 -1.80506,0.89636 -2.05035,0.97517 -2.05035,0.65881 z m 9.52992,-4.44901 c -0.2522,-0.41441 1.9666,-2.59168 2.99097,-2.93501 1.14992,-0.38539 1.92269,-0.19432 1.46737,0.36282 -0.16386,0.2005 -0.50712,0.36455 -0.7628,0.36455 -0.75618,0 -1.81812,0.67423 -2.50744,1.592 -0.66762,0.88887 -0.9369,1.0284 -1.1881,0.61564 z m 8.88809,4.2913 c 0.90935,-0.31128 1.79284,-0.7159 1.9633,-0.89913 0.17046,-0.18322 0.60676,-1.19584 0.96957,-2.25026 0.69487,-2.0195 0.61304,-2.65801 -0.2762,-2.15512 -0.24781,0.14015 -1.12724,0.49401 -1.95429,0.78637 -0.82705,0.29237 -1.61355,0.66596 -1.74778,0.83021 -0.18746,0.22938 -1.45224,3.9122 -1.45224,4.22867 0,0.1851 1.02655,-0.0371 2.49764,-0.54074 z"
         style="fill:#000000" />
    </g>
    <path
       style="fill:none;fill-rule:evenodd;stroke:#000000;stroke-width:1.49893951;stroke-linecap:butt;stroke-linejoin:miter;stroke-miterlimit:4;stroke-dasharray:none;stroke-opacity:1"
       d="m 11.992979,287.2211 c 0,678.97386 0,678.97386 0,678.97386"
       id="path4943"
       inkscape:connector-curvature="0" />
    <path
       inkscape:connector-curvature="0"
       id="path4945"
       d="m 25.271839,309.74786 c 0,632.59509 0,632.59509 0,632.59509"
       style="fill:none;fill-rule:evenodd;stroke:#000000;stroke-width:1.44684017;stroke-linecap:butt;stroke-linejoin:miter;stroke-miterlimit:4;stroke-dasharray:none;stroke-opacity:1" />
    <path
       inkscape:connector-curvature="0"
       id="path4947"
       d="m 520.26756,287.2211 c 0,678.97386 0,678.97386 0,678.97386"
       style="fill:none;fill-rule:evenodd;stroke:#000000;stroke-width:1.49893951;stroke-linecap:butt;stroke-linejoin:miter;stroke-miterlimit:4;stroke-dasharray:none;stroke-opacity:1" />
    <path
       style="fill:none;fill-rule:evenodd;stroke:#000000;stroke-width:1.44684017;stroke-linecap:butt;stroke-linejoin:miter;stroke-miterlimit:4;stroke-dasharray:none;stroke-opacity:1"
       d="m 506.98911,309.74786 c 0,632.59509 0,632.59509 0,632.59509"
       id="path4949"
       inkscape:connector-curvature="0" />
    <rect
       style="opacity:0.53500001;fill:#c1b3d4;fill-opacity:0;fill-rule:nonzero;stroke:none;stroke-width:0.5;stroke-linecap:round;stroke-linejoin:round;stroke-miterlimit:4;stroke-dasharray:none;stroke-opacity:1"
       id="rect4951"
       width="177.16499"
       height="283.46457"
       x="35.683071"
       y="166.03546" />
    <circle
       style="opacity:0.87099998;fill:#e0c0c7;fill-opacity:1;fill-rule:nonzero;stroke:none;stroke-width:4.2329998;stroke-linecap:round;stroke-linejoin:round;stroke-miterlimit:4;stroke-dasharray:none;stroke-opacity:1"
       id="path4705"
       cx="264.16666"
       cy="387.5289"
       r="147.50002" />
    <text
       sodipodi:linespacing="125%"
       id="text4983"
       y="584.04181"
       x="78.303589"
       style="font-style:normal;font-weight:normal;font-size:28.30393219px;line-height:125%;font-family:sans-serif;letter-spacing:0px;word-spacing:0px;fill:#000000;fill-opacity:1;stroke:none;stroke-width:1px;stroke-linecap:butt;stroke-linejoin:miter;stroke-opacity:1"
       xml:space="preserve"><tspan
         style="font-style:normal;font-variant:normal;font-weight:normal;font-stretch:normal;font-size:33.75px;line-height:125%;font-family:Courgette;-inkscape-font-specification:Courgette;text-align:start;writing-mode:lr-tb;text-anchor:start"
         y="584.04181"
         x="78.303589"
         id="tspan4985"
         sodipodi:role="line">sábado 14 de enero, 2017</tspan></text>
    <text
       sodipodi:linespacing="115%"
       id="text4636"
       y="495.4812"
       x="264.70758"
       style="font-style:normal;font-variant:normal;font-weight:normal;font-stretch:normal;font-size:74.81056976px;line-height:114.99999762%;font-family:sans-serif;-inkscape-font-specification:'sans-serif, Normal';text-align:start;letter-spacing:0px;word-spacing:0px;writing-mode:lr-tb;text-anchor:start;fill:#8a6f91;fill-opacity:1;stroke:#8a6f91;stroke-width:1px;stroke-linecap:butt;stroke-linejoin:miter;stroke-opacity:1"
       xml:space="preserve"><tspan
         id="tspan4640"
         style="font-style:normal;font-variant:normal;font-weight:normal;font-stretch:normal;font-size:74.81056976px;line-height:114.99999762%;font-family:'.Savoye LET CC.';-inkscape-font-specification:'.Savoye LET CC., Normal';text-align:center;writing-mode:lr-tb;text-anchor:middle;fill:#8a6f91;fill-opacity:1;stroke:#8a6f91;stroke-width:4.21493673px;stroke-opacity:1"
         y="495.4812"
         x="264.70758"
         sodipodi:role="line"><tspan
           style="font-style:normal;font-variant:normal;font-weight:normal;font-stretch:normal;font-family:Courgette;-inkscape-font-specification:Courgette;fill:#8a6f91;fill-opacity:1;stroke:#8a6f91;stroke-opacity:1"
           id="tspan4724">85 años</tspan></tspan></text>
    <text
       sodipodi:linespacing="140%"
       id="text4652"
       y="668.85583"
       x="264.87955"
       style="font-style:normal;font-weight:normal;font-size:35.02949905px;line-height:139.99999762%;font-family:sans-serif;letter-spacing:0px;word-spacing:0px;fill:#000000;fill-opacity:1;stroke:none;stroke-width:1px;stroke-linecap:butt;stroke-linejoin:miter;stroke-opacity:1"
       xml:space="preserve"><tspan
         style="font-style:normal;font-variant:normal;font-weight:normal;font-stretch:normal;font-size:38.75px;line-height:139.99999762%;font-family:Pacifico;-inkscape-font-specification:Pacifico;text-align:center;writing-mode:lr-tb;text-anchor:middle"
         y="668.85583"
         x="264.87955"
         id="tspan4654"
         sodipodi:role="line">Misa <tspan
   style="font-size:45px;fill:#8a6f91"
   id="tspan4728">12:00 pm</tspan></tspan><tspan
         style="font-style:normal;font-variant:normal;font-weight:normal;font-stretch:normal;font-size:31.25px;line-height:139.99999762%;font-family:Courgette;-inkscape-font-specification:Courgette;text-align:center;writing-mode:lr-tb;text-anchor:middle"
         y="719.29358"
         x="264.87955"
         sodipodi:role="line"
         id="tspan4656">Templo San Rafael</tspan></text>
    <text
       xml:space="preserve"
       style="font-style:normal;font-weight:normal;font-size:35.02949905px;line-height:139.99999762%;font-family:sans-serif;letter-spacing:0px;word-spacing:0px;fill:#000000;fill-opacity:1;stroke:none;stroke-width:1px;stroke-linecap:butt;stroke-linejoin:miter;stroke-opacity:1"
       x="267.05444"
       y="795.336"
       id="text4658"
       sodipodi:linespacing="140%"><tspan
         id="tspan4662"
         sodipodi:role="line"
         x="267.05444"
         y="795.336"
         style="font-style:normal;font-variant:normal;font-weight:normal;font-stretch:normal;font-size:37.5px;line-height:139.99999762%;font-family:Pacifico;-inkscape-font-specification:Pacifico;text-align:center;writing-mode:lr-tb;text-anchor:middle">Comida bufette <tspan
   style="font-size:45px;fill:#8a6f91"
   id="tspan4726">1:30 pm</tspan></tspan><tspan
         sodipodi:role="line"
         x="267.05444"
         y="845.77374"
         style="font-style:normal;font-variant:normal;font-weight:normal;font-stretch:normal;font-size:31.25px;line-height:139.99999762%;font-family:Courgette;-inkscape-font-specification:Courgette;text-align:center;writing-mode:lr-tb;text-anchor:middle"
         id="tspan4666">Casa de Piedra (área privada)</tspan><tspan
         sodipodi:role="line"
         x="267.05444"
         y="885.42218"
         style="font-style:normal;font-variant:normal;font-weight:normal;font-stretch:normal;font-size:27.5px;line-height:139.99999762%;font-family:Courgette;-inkscape-font-specification:Courgette;text-align:center;writing-mode:lr-tb;text-anchor:middle"
         id="tspan4668">Cuota por persona: $250</tspan><tspan
         sodipodi:role="line"
         x="267.05444"
         y="923.92218"
         style="font-style:normal;font-variant:normal;font-weight:normal;font-stretch:normal;font-size:27.5px;line-height:139.99999762%;font-family:Courgette;-inkscape-font-specification:Courgette;text-align:center;writing-mode:lr-tb;text-anchor:middle"
         id="tspan4670">Cada quién lleva sus bebidas</tspan></text>
    <text
       xml:space="preserve"
       style="font-style:normal;font-variant:normal;font-weight:normal;font-stretch:normal;font-size:54.24967957px;line-height:92.00000167%;font-family:sans-serif;-inkscape-font-specification:'sans-serif, Normal';text-align:start;letter-spacing:0px;word-spacing:0px;writing-mode:lr-tb;text-anchor:start;fill:#000000;fill-opacity:1;stroke:none;stroke-width:1px;stroke-linecap:butt;stroke-linejoin:miter;stroke-opacity:1"
       x="262.6918"
       y="336.97284"
       id="text4969"
       sodipodi:linespacing="92.000002%"><tspan
         sodipodi:role="line"
         x="262.6918"
         y="336.97284"
         style="font-style:normal;font-variant:normal;font-weight:normal;font-stretch:normal;font-size:54.24967957px;line-height:92.00000167%;font-family:'.Savoye LET CC.';-inkscape-font-specification:'.Savoye LET CC., Normal';text-align:center;writing-mode:lr-tb;text-anchor:middle"
         id="tspan4973">Celebremos a</tspan><tspan
         sodipodi:role="line"
         x="262.6918"
         y="410.12799"
         style="font-style:normal;font-variant:normal;font-weight:normal;font-stretch:normal;font-size:76.41265106px;line-height:92.00000167%;font-family:Pacifico;-inkscape-font-specification:Pacifico;text-align:center;writing-mode:lr-tb;text-anchor:middle"
         id="tspan4634">Nina Pina</tspan></text>
  </g>
  <g
     inkscape:groupmode="layer"
     id="layer2"
     inkscape:label="textura"
     style="display:inline">
    <path
       style="display:inline;opacity:0.194;fill:#c7b9c5;fill-opacity:1;fill-rule:nonzero;stroke:#6e6e6e;stroke-width:1.49893951;stroke-linecap:round;stroke-linejoin:round;stroke-miterlimit:4;stroke-dasharray:none;stroke-opacity:1;filter:url(#filter5283)"
       d="m 0.98046875,0.98242188 0,849.92968812 531.03320125,0 0,-849.92968812 -531.03320125,0 z"
       id="rect4746"
       inkscape:connector-curvature="0" />
  </g>
</svg>
